Coordinates
version=1
nRows=7
nColumns=40
inDegrees=yes

Units are S.I. units (second, meters, Newtons, ...)
Angles are in degrees.

endheader
time	pelvis_tilt	pelvis_list	pelvis_rotation	pelvis_tx	pelvis_ty	pelvis_tz	hip_flexion_r	hip_adduction_r	hip_rotation_r	knee_angle_r	knee_angle_r_beta	ankle_angle_r	subtalar_angle_r	mtp_angle_r	hip_flexion_l	hip_adduction_l	hip_rotation_l	knee_angle_l	knee_angle_l_beta	ankle_angle_l	subtalar_angle_l	mtp_angle_l	lumbar_extension	lumbar_bending	lumbar_rotation	arm_flex_r	arm_add_r	arm_rot_r	elbow_flex_r	pro_sup_r	wrist_flex_r	wrist_dev_r	arm_flex_l	arm_add_l	arm_rot_l	elbow_flex_l	pro_sup_l	wrist_flex_l	wrist_dev_l
     28.10000000	     -3.43666312	     -3.67470148	      1.09843860	      0.90220011	      0.92162673	      0.41841269	     14.14038474	     -6.12185057	     -7.56334589	     53.90938237	     53.90938237	     -1.05569592	    -17.82927467	    -19.70155468	     19.31534896	     -0.30609374	      0.95223493	     29.45833325	     29.45833325	     16.75278414	    -17.62792006	      8.20506347	     -8.47087907	      4.02680829	      2.98536929	     35.49359449	    -13.41823734	     -8.49201892	     56.25252004	     45.47616477	      0.00000000	      0.00000000	     21.60157395	    -12.99172336	      3.02588525	     39.19950128	     45.67679334	      0.00000000	      0.00000000
     28.11935714	     -3.06560455	     -3.55784804	      0.26575217	      0.90213237	      0.92063367	      0.41630870	     16.54246954	     -6.55611915	     -6.66698450	     58.26160302	     58.26160302	     -2.06227110	    -18.54640552	    -14.30213256	     18.72205324	     -0.17478080	      0.31284963	     30.07212333	     30.07212333	     17.53059154	    -17.90749268	      8.42812119	     -8.88334945	      4.42301332	      3.30494128	     32.90952004	    -13.45492319	     -8.58931504	     53.19208138	     45.57920097	      0.00000000	      0.00000000	     23.29072175	    -13.33320269	      2.94781242	     40.87721430	     45.74852518	      0.00000000	      0.00000000
     28.13871429	     -2.76567177	     -3.45316301	     -0.53441893	      0.90201317	      0.91958418	      0.41433490	     19.08081287	     -6.74261407	     -5.63087843	     62.47086411	     62.47086411	     -1.66976736	    -18.78373608	     -5.09774248	     18.20487511	     -0.03597781	     -0.26726382	     30.69596862	     30.69596862	     18.49812617	    -18.09094796	      9.13393000	     -9.18922539	      4.84418746	      3.07079873	     30.82298827	    -12.90739695	     -8.88402201	     48.98465079	     45.73273976	      0.00000000	      0.00000000	     24.82238526	    -14.18378255	      3.07716419	     42.16664604	     45.81427937	      0.00000000	      0.00000000
     28.15807143	     -2.45592064	     -3.36691982	     -1.30549505	      0.90193979	      0.91876177	      0.41243635	     21.39627376	     -6.84196942	     -4.73293069	     65.96683896	     65.96683896	     -0.91947291	    -19.00874196	      3.69275297	     17.60156205	      0.09012286	     -0.86310888	     31.17341102	     31.17341102	     19.37761989	    -18.22276203	      9.73504914	     -9.55474262	      5.26421572	      3.03280939	     28.67058450	    -12.65682757	     -9.40895470	     44.69394307	     45.89818005	      0.00000000	      0.00000000	     26.50219495	    -14.92769724	      3.11936498	     43.55382810	     45.90249281	      0.00000000	      0.00000000
     28.17742857	     -2.16032369	     -3.26491944	     -2.04761402	      0.90191923	      0.91826888	      0.41067563	     23.43042625	     -6.93916040	     -4.01560547	     68.59334885	     68.59334885	     -0.07563284	    -19.21965492	     10.52689105	     16.89301224	      0.24361996	     -1.46677100	     31.40959482	     31.40959482	     20.09595215	    -18.32740997	     10.15651345	     -9.94897801	      5.64558328	      3.01330404	     26.40653291	    -12.52918552	    -10.09929715	     40.71442044	     46.05932264	      0.00000000	      0.00000000	     28.22261079	    -15.67974607	      3.06286389	     44.83166302	     45.99955399	      0.00000000	      0.00000000
     28.19678571	     -1.90431020	     -3.14914728	     -2.75059910	      0.90199122	      0.91818260	      0.40904348	     25.09886878	     -7.11999851	     -3.59301954	     70.17400878	     70.17400878	      0.09248473	    -19.39685852	     12.57123006	     16.06118460	      0.42972087	     -2.04367583	     31.30181940	     31.30181940	     20.56416568	    -18.41702644	     10.26327215	    -10.36120662	      5.99056297	      3.34132804	     23.41548961	    -12.87089685	    -10.36902838	     38.13554407	     46.15150407	      0.00000000	      0.00000000	     30.04463920	    -16.12343322	      2.82151321	     46.15907367	     46.07293261	      0.00000000	      0.00000000
     28.21614286	     -1.74410939	     -3.12723835	     -3.38607474	      0.90198898	      0.91848057	      0.40791769	     26.72611245	     -6.91563054	     -3.14222981	     71.10737553	     71.10737553	      1.78684063	    -19.46185965	     17.46366256	     15.26923589	      0.49197256	     -2.58910532	     31.05187410	     31.05187410	     21.01537775	    -18.40964643	     10.58038745	    -10.65592919	      6.39740220	      2.94677130	     21.26343897	    -12.59303967	    -11.37363297	     34.43878415	     46.32982268	      0.00000000	      0.00000000	     31.52185772	    -17.23604381	      2.73833206	     47.29426523	     46.15610791	      0.00000000	      0.00000000
